<svg width="18" height="22" viewBox="0 0 18 22" fill="none" xmlns="http://www.w3.org/2000/svg">
<path d="M6.94 -3.03357e-07C6.84813 0.010416 6.75763 0.0305275 6.67 0.0599992L6.58 0.0599992C6.47718 0.10808 6.38266 0.172216 6.3 0.25V0.25L0.299999 6.25C0.222215 6.33266 0.15808 6.42718 0.109999 6.53L0.109999 6.62C0.0517406 6.72159 0.0143435 6.83378 -6.57856e-07 6.95L-3.0598e-07 15C-2.71201e-07 15.7956 0.31607 16.5587 0.87868 17.1213C1.44129 17.6839 2.20435 18 3 18L4 18L4 19C4 19.7956 4.31607 20.5587 4.87868 21.1213C5.44129 21.6839 6.20435 22 7 22L15 22C15.7956 22 16.5587 21.6839 17.1213 21.1213C17.6839 20.5587 18 19.7956 18 19L18 7C18 6.20435 17.6839 5.44129 17.1213 4.87868C16.5587 4.31607 15.7956 4 15 4L14 4L14 3C14 2.20435 13.6839 1.44129 13.1213 0.878679C12.5587 0.31607 11.7956 -5.15604e-07 11 -4.80825e-07L7 -3.0598e-07C7 -3.0598e-07 7 -3.0598e-07 6.94 -3.03357e-07ZM3.41 6L6 3.41L6 5C6 5.26522 5.89464 5.51957 5.70711 5.70711C5.51957 5.89464 5.26522 6 5 6L3.41 6ZM15 6C15.2652 6 15.5196 6.10536 15.7071 6.29289C15.8946 6.48043 16 6.73478 16 7L16 19C16 19.2652 15.8946 19.5196 15.7071 19.7071C15.5196 19.8946 15.2652 20 15 20L7 20C6.73478 20 6.48043 19.8946 6.29289 19.7071C6.10536 19.5196 6 19.2652 6 19L6 18L11 18C11.7956 18 12.5587 17.6839 13.1213 17.1213C13.6839 16.5587 14 15.7956 14 15L14 6L15 6ZM11 2C11.2652 2 11.5196 2.10536 11.7071 2.29289C11.8946 2.48043 12 2.73478 12 3L12 15C12 15.2652 11.8946 15.5196 11.7071 15.7071C11.5196 15.8946 11.2652 16 11 16L3 16C2.73478 16 2.48043 15.8946 2.29289 15.7071C2.10536 15.5196 2 15.2652 2 15L2 8L5 8C5.79565 8 6.55871 7.68393 7.12132 7.12132C7.68393 6.55871 8 5.79565 8 5L8 2L11 2Z" fill="black"/>
</svg>
