<svg width="19" height="18" viewBox="0 0 19 18" fill="none" xmlns="http://www.w3.org/2000/svg">
<path d="M16.2523 4.45547L14.5446 6.16324V2.10132H6.85961V6.37073H2.5902V15.7634H14.5446V13.4093L16.2523 11.7015V16.6241C16.2521 16.8489 16.1627 17.0643 16.0037 17.2232C15.8447 17.382 15.6291 17.4712 15.4044 17.4712H1.73034C1.61821 17.4704 1.50733 17.4476 1.40403 17.4039C1.30073 17.3603 1.20704 17.2967 1.1283 17.2169C1.04956 17.137 0.987327 17.0425 0.945142 16.9386C0.902956 16.8347 0.881649 16.7235 0.882437 16.6113V5.51685L6.00829 0.393555H15.3967C15.8681 0.393555 16.2523 0.782071 16.2523 1.24061V4.45547ZM16.9166 6.20593L18.124 7.41417L11.4825 14.0557L10.2734 14.054L10.2751 12.8483L16.9166 6.20678V6.20593Z" fill="#000000"/>
</svg>
