<svg width="20" height="16" viewBox="0 0 20 16" fill="none" xmlns="http://www.w3.org/2000/svg">
<path d="M1 0C0.734784 0 0.48043 0.105357 0.292893 0.292893C0.105357 0.48043 0 0.734784 0 1V15C0 15.2652 0.105357 15.5196 0.292893 15.7071C0.48043 15.8946 0.734784 16 1 16C1.26522 16 1.51957 15.8946 1.70711 15.7071C1.89464 15.5196 2 15.2652 2 15V1C2 0.734784 1.89464 0.48043 1.70711 0.292893C1.51957 0.105357 1.26522 0 1 0V0ZM19.92 7.62C19.8724 7.49725 19.801 7.3851 19.71 7.29L15.71 3.29C15.6168 3.19676 15.5061 3.1228 15.3842 3.07234C15.2624 3.02188 15.1319 2.99591 15 2.99591C14.7337 2.99591 14.4783 3.1017 14.29 3.29C14.1017 3.4783 13.9959 3.7337 13.9959 4C13.9959 4.2663 14.1017 4.5217 14.29 4.71L16.59 7H5C4.73478 7 4.48043 7.10536 4.29289 7.29289C4.10536 7.48043 4 7.73478 4 8C4 8.26522 4.10536 8.51957 4.29289 8.70711C4.48043 8.89464 4.73478 9 5 9H16.59L14.29 11.29C14.1963 11.383 14.1219 11.4936 14.0711 11.6154C14.0203 11.7373 13.9942 11.868 13.9942 12C13.9942 12.132 14.0203 12.2627 14.0711 12.3846C14.1219 12.5064 14.1963 12.617 14.29 12.71C14.383 12.8037 14.4936 12.8781 14.6154 12.9289C14.7373 12.9797 14.868 13.0058 15 13.0058C15.132 13.0058 15.2627 12.9797 15.3846 12.9289C15.5064 12.8781 15.617 12.8037 15.71 12.71L19.71 8.71C19.801 8.6149 19.8724 8.50275 19.92 8.38C20.02 8.13654 20.02 7.86346 19.92 7.62V7.62Z" fill="black"/>
</svg>
