<svg width="14" height="18" viewBox="0 0 14 18" fill="none" xmlns="http://www.w3.org/2000/svg">
<path d="M0.909424 0.141907H12.8638C13.0902 0.141907 13.3074 0.231869 13.4676 0.392003C13.6277 0.552137 13.7177 0.769325 13.7177 0.995789V17.3417C13.7178 17.418 13.6974 17.493 13.6587 17.5588C13.6199 17.6246 13.5643 17.6788 13.4975 17.7157C13.4307 17.7527 13.3552 17.7711 13.2789 17.769C13.2026 17.7669 13.1282 17.7443 13.0636 17.7037L6.8866 13.8296L0.709616 17.7028C0.645035 17.7434 0.570764 17.766 0.494525 17.7681C0.418285 17.7703 0.342862 17.7519 0.276096 17.7151C0.20933 17.6782 0.153659 17.6241 0.114872 17.5585C0.0760854 17.4928 0.0555988 17.4179 0.055542 17.3417V0.995789C0.055542 0.769325 0.145504 0.552137 0.305638 0.392003C0.465772 0.231869 0.682961 0.141907 0.909424 0.141907ZM12.0099 1.84967H1.76331V15.0268L6.8866 11.8153L12.0099 15.0268V1.84967Z" fill="#000000"/>
</svg>
