<svg width="16" height="20" viewBox="0 0 16 20" fill="none" xmlns="http://www.w3.org/2000/svg">
<path d="M8 11C7.69555 10.9965 7.39732 11.0862 7.14544 11.2573C6.89357 11.4284 6.70015 11.6725 6.59121 11.9568C6.48228 12.2411 6.46306 12.552 6.53615 12.8476C6.60923 13.1431 6.77111 13.4092 7 13.61V15C7 15.2652 7.10536 15.5196 7.29289 15.7071C7.48043 15.8947 7.73478 16 8 16C8.26522 16 8.51957 15.8947 8.70711 15.7071C8.89464 15.5196 9 15.2652 9 15V13.61C9.22889 13.4092 9.39077 13.1431 9.46385 12.8476C9.53694 12.552 9.51772 12.2411 9.40879 11.9568C9.29985 11.6725 9.10643 11.4284 8.85456 11.2573C8.60268 11.0862 8.30445 10.9965 8 11V11ZM13 7.00001H5V5.00001C4.99854 4.4062 5.17334 3.82531 5.50226 3.33092C5.83118 2.83652 6.29942 2.45086 6.84768 2.22277C7.39594 1.99469 7.99956 1.93444 8.58209 2.04966C9.16462 2.16488 9.69985 2.45038 10.12 2.87001C10.4959 3.25408 10.7649 3.72984 10.9 4.25001C10.9328 4.37739 10.9904 4.49706 11.0695 4.60218C11.1486 4.70731 11.2476 4.79582 11.3609 4.86268C11.4742 4.92954 11.5995 4.97343 11.7298 4.99185C11.86 5.01026 11.9926 5.00284 12.12 4.97001C12.2474 4.93718 12.3671 4.87958 12.4722 4.8005C12.5773 4.72143 12.6658 4.62242 12.7327 4.50913C12.7995 4.39584 12.8434 4.27049 12.8618 4.14024C12.8802 4.00999 12.8728 3.87739 12.84 3.75001C12.6122 2.88481 12.1603 2.09495 11.53 1.46001C10.8302 0.762377 9.93934 0.287747 8.96996 0.0960545C8.00058 -0.0956385 6.99614 0.00420153 6.08346 0.382967C5.17078 0.761733 4.3908 1.40244 3.84201 2.22418C3.29321 3.04593 3.00021 4.01186 3 5.00001V7.00001C2.20435 7.00001 1.44129 7.31608 0.87868 7.87869C0.316071 8.4413 0 9.20436 0 10V17C0 17.7957 0.316071 18.5587 0.87868 19.1213C1.44129 19.6839 2.20435 20 3 20H13C13.7956 20 14.5587 19.6839 15.1213 19.1213C15.6839 18.5587 16 17.7957 16 17V10C16 9.20436 15.6839 8.4413 15.1213 7.87869C14.5587 7.31608 13.7956 7.00001 13 7.00001ZM14 17C14 17.2652 13.8946 17.5196 13.7071 17.7071C13.5196 17.8947 13.2652 18 13 18H3C2.73478 18 2.48043 17.8947 2.29289 17.7071C2.10536 17.5196 2 17.2652 2 17V10C2 9.73479 2.10536 9.48044 2.29289 9.2929C2.48043 9.10537 2.73478 9.00001 3 9.00001H13C13.2652 9.00001 13.5196 9.10537 13.7071 9.2929C13.8946 9.48044 14 9.73479 14 10V17Z" fill="#000000"/>
</svg>
