<svg width="current" height="current" viewBox="0 0 102 102" fill="none" xmlns="http://www.w3.org/2000/svg">
<path d="M101.5 84.5H84.5V101.5H101.5V84.5Z" fill="#0078FE"/>
<path d="M46.5 0C37.3032 0 28.3129 2.72718 20.666 7.83666C13.0191 12.9461 7.0591 20.2085 3.53962 28.7052C0.0201478 37.202 -0.900707 46.5516 0.893505 55.5717C2.68772 64.5918 7.11641 72.8773 13.6196 79.3805C20.1227 85.8836 28.4082 90.3123 37.4283 92.1065C46.4484 93.9007 55.798 92.9799 64.2948 89.4604C72.7916 85.9409 80.0539 79.9809 85.1634 72.334C90.2728 64.6871 93 55.6968 93 46.5C93 34.1674 88.1009 22.34 79.3805 13.6195C70.66 4.89909 58.8326 0 46.5 0ZM46.5 76.5C40.5666 76.5 34.7664 74.7405 29.8329 71.4441C24.8994 68.1476 21.0543 63.4623 18.7836 57.9805C16.513 52.4987 15.9189 46.4667 17.0765 40.6473C18.234 34.8279 21.0912 29.4824 25.2868 25.2868C29.4824 21.0912 34.8279 18.234 40.6473 17.0764C46.4667 15.9189 52.4987 16.513 57.9805 18.7836C63.4623 21.0542 68.1477 24.8994 71.4441 29.8329C74.7406 34.7664 76.5 40.5666 76.5 46.5C76.5 54.4565 73.3393 62.0871 67.7132 67.7132C62.0871 73.3393 54.4565 76.5 46.5 76.5Z" fill="#0078FE"/>
</svg>
