<svg width="19" height="18" viewBox="0 0 19 18" fill="#000000" xmlns="http://www.w3.org/2000/svg">
<path d="M15.3574 0.380005C15.8288 0.380005 16.2113 0.762544 16.2113 1.23389V4.44192L14.5035 6.14969V2.08777H2.5492V15.7499H14.5035V13.3949L16.2113 11.6871V16.6038C16.2113 17.0751 15.8288 17.4576 15.3574 17.4576H1.69531C1.22397 17.4576 0.841431 17.0751 0.841431 16.6038V1.23389C0.841431 0.762544 1.22397 0.380005 1.69531 0.380005H15.3574ZM16.8756 6.19323L18.083 7.40062L11.4415 14.0421L10.2324 14.0404L10.2341 12.8347L16.8756 6.19323ZM9.38025 8.91883V10.6266H5.11084V8.91883H9.38025ZM11.9419 5.5033V7.21106H5.11084V5.5033H11.9419Z" fill="#000000"/>
</svg>
