<svg width="20" height="18" viewBox="0 0 20 18" fill="none" xmlns="http://www.w3.org/2000/svg">
<path d="M16.2238 17.4477H4.26941C4.04295 17.4477 3.82576 17.3577 3.66562 17.1976C3.50549 17.0375 3.41553 16.8203 3.41553 16.5938V8.90888H0.853882L9.67192 0.892633C9.82913 0.749589 10.034 0.670319 10.2466 0.670319C10.4591 0.670319 10.664 0.749589 10.8212 0.892633L19.6393 8.90888H17.0776V16.5938C17.0776 16.8203 16.9877 17.0375 16.8275 17.1976C16.6674 17.3577 16.4502 17.4477 16.2238 17.4477ZM5.12329 15.7399H15.3699V7.33517L10.2466 2.6781L5.12329 7.33517V15.7399ZM7.68494 8.055H12.8082V13.1783H7.68494V8.055ZM9.3927 9.76276V11.4705H11.1005V9.76276H9.3927Z" fill="#000000"/>
</svg>
