<svg width="24" height="16" viewBox="0 0 24 16" fill="none" xmlns="http://www.w3.org/2000/svg">
<path d="M8.00007 6.99996H16.0001C16.1478 6.99898 16.2934 6.9653 16.4266 6.90132C16.5597 6.83735 16.677 6.74467 16.7701 6.62996C16.8678 6.51749 16.9392 6.38459 16.979 6.24099C17.0188 6.09739 17.026 5.9467 17.0001 5.79996L16.0001 0.799959C15.9533 0.570684 15.8276 0.365062 15.6449 0.218887C15.4622 0.0727124 15.234 -0.00475863 15.0001 -4.07016e-05H9.00007C8.76612 -0.00475863 8.53793 0.0727124 8.35521 0.218887C8.17249 0.365062 8.04682 0.570684 8.00007 0.799959L7.00007 5.79996C6.97144 5.94523 6.97543 6.09503 7.01175 6.23857C7.04807 6.38211 7.1158 6.51579 7.21007 6.62996C7.30524 6.74731 7.42577 6.84156 7.56259 6.90564C7.69942 6.96973 7.84899 7.00197 8.00007 6.99996ZM9.82007 1.99996H14.1801L14.7801 4.99996H9.22007L9.82007 1.99996ZM22.0001 9.79996C21.9533 9.57068 21.8276 9.36506 21.6449 9.21889C21.4622 9.07271 21.234 8.99524 21.0001 8.99996H15.0001C14.7661 8.99524 14.5379 9.07271 14.3552 9.21889C14.1725 9.36506 14.0468 9.57068 14.0001 9.79996L13.0001 14.8C12.9714 14.9452 12.9754 15.095 13.0117 15.2386C13.0481 15.3821 13.1158 15.5158 13.2101 15.63C13.3052 15.7473 13.4258 15.8416 13.5626 15.9056C13.6994 15.9697 13.849 16.002 14.0001 16H22.0001C22.1478 15.999 22.2934 15.9653 22.4266 15.9013C22.5597 15.8373 22.677 15.7447 22.7701 15.63C22.8678 15.5175 22.9392 15.3846 22.979 15.241C23.0188 15.0974 23.026 14.9467 23.0001 14.8L22.0001 9.79996ZM15.2201 14L15.8201 11H20.1801L20.7801 14H15.2201ZM9.00007 8.99996H3.00007C2.76612 8.99524 2.53793 9.07271 2.35521 9.21889C2.17249 9.36506 2.04682 9.57068 2.00007 9.79996L1.00007 14.8C0.971443 14.9452 0.975433 15.095 1.01175 15.2386C1.04807 15.3821 1.1158 15.5158 1.21007 15.63C1.30524 15.7473 1.42577 15.8416 1.56259 15.9056C1.69942 15.9697 1.84899 16.002 2.00007 16H10.0001C10.1478 15.999 10.2934 15.9653 10.4266 15.9013C10.5597 15.8373 10.677 15.7447 10.7701 15.63C10.8678 15.5175 10.9392 15.3846 10.979 15.241C11.0188 15.0974 11.026 14.9467 11.0001 14.8L10.0001 9.79996C9.95332 9.57068 9.82764 9.36506 9.64492 9.21889C9.46221 9.07271 9.23401 8.99524 9.00007 8.99996ZM3.22007 14L3.82007 11H8.18007L8.78007 14H3.22007Z" fill="#000000"/>
</svg>
