<svg width="21" height="21" viewBox="0 0 21 21" fill="none" xmlns="http://www.w3.org/2000/svg">
<path d="M10 18H3C2.73478 18 2.48043 17.8946 2.29289 17.7071C2.10536 17.5196 2 17.2652 2 17V3C2 2.73478 2.10536 2.48043 2.29289 2.29289C2.48043 2.10536 2.73478 2 3 2H8V5C8 5.79565 8.31607 6.55871 8.87868 7.12132C9.44129 7.68393 10.2044 8 11 8H14V9C14 9.26522 14.1054 9.51957 14.2929 9.70711C14.4804 9.89464 14.7348 10 15 10C15.2652 10 15.5196 9.89464 15.7071 9.70711C15.8946 9.51957 16 9.26522 16 9V7C16 7 16 7 16 6.94C15.9896 6.84813 15.9695 6.75763 15.94 6.67V6.58C15.8919 6.47718 15.8278 6.38267 15.75 6.3L9.75 0.3C9.66734 0.222216 9.57282 0.158081 9.47 0.11C9.44015 0.10576 9.40985 0.10576 9.38 0.11C9.27841 0.0517412 9.16622 0.0143442 9.05 0H3C2.20435 0 1.44129 0.316071 0.87868 0.87868C0.316071 1.44129 0 2.20435 0 3V17C0 17.7956 0.316071 18.5587 0.87868 19.1213C1.44129 19.6839 2.20435 20 3 20H10C10.2652 20 10.5196 19.8946 10.7071 19.7071C10.8946 19.5196 11 19.2652 11 19C11 18.7348 10.8946 18.4804 10.7071 18.2929C10.5196 18.1054 10.2652 18 10 18ZM10 3.41L12.59 6H11C10.7348 6 10.4804 5.89464 10.2929 5.70711C10.1054 5.51957 10 5.26522 10 5V3.41ZM5 6C4.73478 6 4.48043 6.10536 4.29289 6.29289C4.10536 6.48043 4 6.73478 4 7C4 7.26522 4.10536 7.51957 4.29289 7.70711C4.48043 7.89464 4.73478 8 5 8H6C6.26522 8 6.51957 7.89464 6.70711 7.70711C6.89464 7.51957 7 7.26522 7 7C7 6.73478 6.89464 6.48043 6.70711 6.29289C6.51957 6.10536 6.26522 6 6 6H5ZM19.71 18.29L18.54 17.13C18.914 16.4773 19.0636 15.7199 18.9661 14.974C18.8686 14.2281 18.5292 13.5347 18 13C17.513 12.4957 16.8854 12.1497 16.199 12.0071C15.5126 11.8646 14.7992 11.9321 14.1517 12.2008C13.5041 12.4695 12.9526 12.927 12.5688 13.5137C12.185 14.1004 11.9868 14.7891 12 15.49C11.9966 16.0932 12.1509 16.6868 12.4476 17.2119C12.7444 17.7371 13.1733 18.1755 13.6917 18.4838C14.2102 18.7921 14.8003 18.9594 15.4034 18.9693C16.0065 18.9791 16.6017 18.8311 17.13 18.54L18.29 19.71C18.383 19.8037 18.4936 19.8781 18.6154 19.9289C18.7373 19.9797 18.868 20.0058 19 20.0058C19.132 20.0058 19.2627 19.9797 19.3846 19.9289C19.5064 19.8781 19.617 19.8037 19.71 19.71C19.8037 19.617 19.8781 19.5064 19.9289 19.3846C19.9797 19.2627 20.0058 19.132 20.0058 19C20.0058 18.868 19.9797 18.7373 19.9289 18.6154C19.8781 18.4936 19.8037 18.383 19.71 18.29ZM16.54 16.54C16.2544 16.8086 15.8771 16.9581 15.485 16.9581C15.0929 16.9581 14.7156 16.8086 14.43 16.54C14.1547 16.2598 14.0003 15.8828 14 15.49C13.9979 15.2928 14.0359 15.0971 14.1115 14.915C14.1871 14.7328 14.2989 14.5678 14.44 14.43C14.7066 14.1648 15.0641 14.0111 15.44 14C15.6422 13.9876 15.8447 14.0171 16.035 14.0866C16.2252 14.1562 16.399 14.2643 16.5455 14.4042C16.692 14.5441 16.808 14.7128 16.8862 14.8996C16.9644 15.0865 17.0031 15.2875 17 15.49C16.9917 15.8871 16.8263 16.2647 16.54 16.54ZM11 10H5C4.73478 10 4.48043 10.1054 4.29289 10.2929C4.10536 10.4804 4 10.7348 4 11C4 11.2652 4.10536 11.5196 4.29289 11.7071C4.48043 11.8946 4.73478 12 5 12H11C11.2652 12 11.5196 11.8946 11.7071 11.7071C11.8946 11.5196 12 11.2652 12 11C12 10.7348 11.8946 10.4804 11.7071 10.2929C11.5196 10.1054 11.2652 10 11 10ZM9 16C9.26522 16 9.51957 15.8946 9.70711 15.7071C9.89464 15.5196 10 15.2652 10 15C10 14.7348 9.89464 14.4804 9.70711 14.2929C9.51957 14.1054 9.26522 14 9 14H5C4.73478 14 4.48043 14.1054 4.29289 14.2929C4.10536 14.4804 4 14.7348 4 15C4 15.2652 4.10536 15.5196 4.29289 15.7071C4.48043 15.8946 4.73478 16 5 16H9Z" fill="#000000"/>
</svg>
