<svg width="20" height="20" viewBox="0 0 20 20" fill="none" xmlns="http://www.w3.org/2000/svg">
<path d="M8.5 18H3.5C3.23478 18 2.98043 17.8946 2.79289 17.7071C2.60536 17.5196 2.5 17.2652 2.5 17V3C2.5 2.73478 2.60536 2.48043 2.79289 2.29289C2.98043 2.10536 3.23478 2 3.5 2H8.5V5C8.5 5.79565 8.81607 6.55871 9.37868 7.12132C9.94129 7.68393 10.7044 8 11.5 8H14.5C14.5 8.26522 14.6054 8.51957 14.7929 8.70711C14.9804 8.89464 15.2348 9 15.5 9C15.7652 9 16.0196 8.89464 16.2071 8.70711C16.3946 8.51957 16.5 8.26522 16.5 8V7C16.5 7 16.5 7 16.5 6.94C16.4896 6.84813 16.4695 6.75763 16.44 6.67V6.58C16.3919 6.47718 16.3278 6.38267 16.25 6.3L10.25 0.3C10.1673 0.222216 10.0728 0.158081 9.97 0.11C9.94015 0.10576 9.90985 0.10576 9.88 0.11L9.56 0H3.5C2.70435 0 1.94129 0.316071 1.37868 0.87868C0.816071 1.44129 0.5 2.20435 0.5 3V17C0.5 17.7956 0.816071 18.5587 1.37868 19.1213C1.94129 19.6839 2.70435 20 3.5 20H8.5C8.76522 20 9.01957 19.8946 9.20711 19.7071C9.39464 19.5196 9.5 19.2652 9.5 19C9.5 18.7348 9.39464 18.4804 9.20711 18.2929C9.01957 18.1054 8.76522 18 8.5 18ZM10.5 3.41L13.09 6H11.5C11.2348 6 10.9804 5.89464 10.7929 5.70711C10.6054 5.51957 10.5 5.26522 10.5 5V3.41ZM5.5 6C5.23478 6 4.98043 6.10536 4.79289 6.29289C4.60536 6.48043 4.5 6.73478 4.5 7C4.5 7.26522 4.60536 7.51957 4.79289 7.70711C4.98043 7.89464 5.23478 8 5.5 8H6.5C6.76522 8 7.01957 7.89464 7.20711 7.70711C7.39464 7.51957 7.5 7.26522 7.5 7C7.5 6.73478 7.39464 6.48043 7.20711 6.29289C7.01957 6.10536 6.76522 6 6.5 6H5.5ZM19.13 11.86C19.0138 11.766 18.8781 11.6993 18.7327 11.6647C18.5873 11.6301 18.4361 11.6285 18.29 11.66C17.9108 11.7399 17.5191 11.7394 17.1401 11.6584C16.7612 11.5774 16.4034 11.4179 16.09 11.19C15.9187 11.0649 15.7121 10.9974 15.5 10.9974C15.2879 10.9974 15.0813 11.0649 14.91 11.19C14.5963 11.4173 14.2385 11.5765 13.8597 11.6575C13.4808 11.7384 13.0892 11.7393 12.71 11.66C12.5623 11.6282 12.4094 11.6304 12.2626 11.6662C12.1159 11.702 11.9791 11.7706 11.8627 11.8668C11.7463 11.9631 11.6531 12.0844 11.5903 12.2218C11.5275 12.3592 11.4966 12.509 11.5 12.66V15C11.4984 15.7158 11.664 16.4221 11.9834 17.0627C12.3028 17.7033 12.7673 18.2605 13.34 18.69L14.9 19.8C15.0731 19.9298 15.2836 20 15.5 20C15.7164 20 15.9269 19.9298 16.1 19.8L17.66 18.64C18.2259 18.2156 18.6864 17.6664 19.0055 17.0351C19.3246 16.4038 19.4938 15.7074 19.5 15V12.63C19.499 12.4823 19.4653 12.3366 19.4014 12.2035C19.3374 12.0704 19.2447 11.9531 19.13 11.86ZM17.5 15C17.5047 15.4017 17.417 15.7991 17.2436 16.1615C17.0702 16.5239 16.8158 16.8416 16.5 17.09L15.5 17.81L14.5 17.09C14.1842 16.8416 13.9298 16.5239 13.7564 16.1615C13.583 15.7991 13.4953 15.4017 13.5 15V13.72C14.1994 13.6886 14.8829 13.5006 15.5 13.17C16.1171 13.5006 16.8006 13.6886 17.5 13.72V15ZM8.5 14.05H5.5C5.23478 14.05 4.98043 14.1554 4.79289 14.3429C4.60536 14.5304 4.5 14.7848 4.5 15.05C4.5 15.3152 4.60536 15.5696 4.79289 15.7571C4.98043 15.9446 5.23478 16.05 5.5 16.05H8.5C8.76522 16.05 9.01957 15.9446 9.20711 15.7571C9.39464 15.5696 9.5 15.3152 9.5 15.05C9.5 14.7848 9.39464 14.5304 9.20711 14.3429C9.01957 14.1554 8.76522 14.05 8.5 14.05ZM9.5 10.05H5.5C5.23478 10.05 4.98043 10.1554 4.79289 10.3429C4.60536 10.5304 4.5 10.7848 4.5 11.05C4.5 11.3152 4.60536 11.5696 4.79289 11.7571C4.98043 11.9446 5.23478 12.05 5.5 12.05H9.5C9.76522 12.05 10.0196 11.9446 10.2071 11.7571C10.3946 11.5696 10.5 11.3152 10.5 11.05C10.5 10.7848 10.3946 10.5304 10.2071 10.3429C10.0196 10.1554 9.76522 10.05 9.5 10.05Z" fill="black"/>
</svg>
