<svg width="16" height="16" viewBox="0 0 16 16" fill="none" xmlns="http://www.w3.org/2000/svg">
<path d="M4.77893 1.14246H15.8794V2.85022H4.77893V1.14246ZM1.79034 3.27716C1.45065 3.27716 1.12487 3.14222 0.884666 2.90202C0.644465 2.66182 0.509521 2.33603 0.509521 1.99634C0.509521 1.65664 0.644465 1.33086 0.884666 1.09066C1.12487 0.850459 1.45065 0.715515 1.79034 0.715515C2.13004 0.715515 2.45582 0.850459 2.69602 1.09066C2.93622 1.33086 3.07117 1.65664 3.07117 1.99634C3.07117 2.33603 2.93622 2.66182 2.69602 2.90202C2.45582 3.14222 2.13004 3.27716 1.79034 3.27716ZM1.79034 9.25434C1.45065 9.25434 1.12487 9.11939 0.884666 8.87919C0.644465 8.63899 0.509521 8.31321 0.509521 7.97351C0.509521 7.63382 0.644465 7.30804 0.884666 7.06783C1.12487 6.82763 1.45065 6.69269 1.79034 6.69269C2.13004 6.69269 2.45582 6.82763 2.69602 7.06783C2.93622 7.30804 3.07117 7.63382 3.07117 7.97351C3.07117 8.31321 2.93622 8.63899 2.69602 8.87919C2.45582 9.11939 2.13004 9.25434 1.79034 9.25434ZM1.79034 15.1461C1.45065 15.1461 1.12487 15.0112 0.884666 14.771C0.644465 14.5308 0.509521 14.205 0.509521 13.8653C0.509521 13.5256 0.644465 13.1998 0.884666 12.9596C1.12487 12.7194 1.45065 12.5845 1.79034 12.5845C2.13004 12.5845 2.45582 12.7194 2.69602 12.9596C2.93622 13.1998 3.07117 13.5256 3.07117 13.8653C3.07117 14.205 2.93622 14.5308 2.69602 14.771C2.45582 15.0112 2.13004 15.1461 1.79034 15.1461ZM4.77893 7.11963H15.8794V8.8274H4.77893V7.11963ZM4.77893 13.0968H15.8794V14.8046H4.77893V13.0968Z" fill="#000000"/>
</svg>
