<svg width="17" height="18" viewBox="0 0 17 18" fill="none" xmlns="http://www.w3.org/2000/svg">
<path d="M4.24329 3.80908V1.24744C4.24329 1.02097 4.33325 0.803785 4.49338 0.643651C4.65352 0.483517 4.87071 0.393555 5.09717 0.393555H15.3438C15.5702 0.393555 15.7874 0.483517 15.9475 0.643651C16.1077 0.803785 16.1976 1.02097 16.1976 1.24744V13.2018C16.1976 13.4283 16.1077 13.6454 15.9475 13.8056C15.7874 13.9657 15.5702 14.0557 15.3438 14.0557H12.7821V16.6173C12.7821 17.0887 12.3979 17.4712 11.9222 17.4712H1.68762C1.57501 17.4719 1.46339 17.4503 1.35915 17.4077C1.25491 17.3651 1.16012 17.3023 1.08022 17.223C1.00031 17.1436 0.936879 17.0493 0.893554 16.9453C0.850229 16.8414 0.827869 16.7299 0.827759 16.6173L0.83032 4.66297C0.83032 4.19162 1.21457 3.80908 1.68933 3.80908H4.24329ZM2.53723 5.51685L2.53552 15.7634H11.0743V5.51685H2.53723ZM5.95105 3.80908H12.7821V12.3479H14.4899V2.10132H5.95105V3.80908ZM4.24329 8.07849H9.36658V9.78626H4.24329V8.07849ZM4.24329 11.494H9.36658V13.2018H4.24329V11.494Z" fill="#000000"/>
</svg>
