<svg width="16" height="18" viewBox="0 0 16 18" fill="none" xmlns="http://www.w3.org/2000/svg">
<path d="M0.174316 0.975409C0.174316 0.507482 0.554294 0.128358 1.02222 0.128358H14.6963C14.9205 0.129921 15.1352 0.219638 15.2938 0.378129C15.4525 0.536621 15.5424 0.751163 15.5442 0.975409V16.359C15.544 16.5837 15.4545 16.7991 15.2955 16.958C15.1366 17.1168 14.921 17.206 14.6963 17.206H1.02222C0.797973 17.2044 0.583341 17.1147 0.42469 16.9562C0.266039 16.7977 0.176105 16.5832 0.174316 16.359V0.975409ZM13.8364 7.8133V1.83612H1.88208V7.8133H13.8364ZM13.8364 9.52106H1.88208V15.4982H13.8364V9.52106ZM5.29761 3.54389H10.4209V5.25165H5.29761V3.54389ZM5.29761 11.2288H10.4209V12.9366H5.29761V11.2288Z" fill="#000000"/>
</svg>
