<svg width="19" height="16" viewBox="0 0 19 16" fill="none" xmlns="http://www.w3.org/2000/svg">
<path d="M2.69531 2.02356V13.9779H16.3574V3.73132H9.17286L7.4651 2.02356H2.69531ZM9.87988 2.02356H17.2113C17.4378 2.02356 17.655 2.11352 17.8151 2.27366C17.9752 2.43379 18.0652 2.65098 18.0652 2.87744V14.8318C18.0652 15.0583 17.9752 15.2754 17.8151 15.4356C17.655 15.5957 17.4378 15.6857 17.2113 15.6857H1.84143C1.61497 15.6857 1.39778 15.5957 1.23765 15.4356C1.07751 15.2754 0.987549 15.0583 0.987549 14.8318V1.16968C0.987549 0.943214 1.07751 0.726026 1.23765 0.565892C1.39778 0.405758 1.61497 0.315796 1.84143 0.315796H8.17211L9.87988 2.02356Z" fill="#000000"/>
</svg>
