<svg width="19" height="17" viewBox="0 0 19 17" fill="none" xmlns="http://www.w3.org/2000/svg">
<path d="M18.038 5.45288H16.3302V3.74512H9.14564L7.43788 2.03735H2.66809V13.9917H9.02695C9.34053 14.677 9.83095 15.2665 10.4478 15.6995H1.81421C1.58775 15.6995 1.37056 15.6095 1.21042 15.4494C1.05029 15.2892 0.960327 15.0721 0.960327 14.8456V1.18347C0.960327 0.957008 1.05029 0.73982 1.21042 0.579686C1.37056 0.419552 1.58775 0.32959 1.81421 0.32959H8.14489L9.85266 2.03735H17.1841C17.4106 2.03735 17.6277 2.12732 17.7879 2.28745C17.948 2.44758 18.038 2.66477 18.038 2.89124V5.45288ZM10.353 7.16065H18.038V12.2404C18.038 13.0857 17.6102 13.8764 16.8972 14.3452L14.1955 16.1247L11.4938 14.3452C11.1443 14.1165 10.857 13.8044 10.6579 13.4372C10.4588 13.07 10.354 12.659 10.353 12.2412V7.16065ZM12.0608 12.2404C12.0608 12.5102 12.1991 12.7647 12.4331 12.9192L14.1955 14.0805L15.9579 12.9192C16.0714 12.8458 16.1649 12.7454 16.2299 12.6269C16.2949 12.5084 16.3293 12.3755 16.3302 12.2404V8.86841H12.0608V12.2404Z" fill="#000000"/>
</svg>
