<svg width="18" height="16" viewBox="0 0 18 16" fill="none" xmlns="http://www.w3.org/2000/svg">
<path d="M0.882447 15.6857C0.655983 15.6857 0.438795 15.5957 0.278661 15.4356C0.118527 15.2754 0.0285645 15.0583 0.0285645 14.8318V1.16968C0.0285645 0.943214 0.118527 0.726026 0.278661 0.565892C0.438795 0.405758 0.655983 0.315796 0.882447 0.315796H7.21313L8.92089 2.02356H15.3984C15.6249 2.02356 15.8421 2.11352 16.0022 2.27366C16.1624 2.43379 16.2523 2.65098 16.2523 2.87744V5.43909H14.5446V3.73132H8.21388L6.50611 2.02356H1.73633V12.2684L3.01715 7.14685H17.5331L15.5607 15.0393C15.5144 15.2239 15.4078 15.3878 15.2577 15.5049C15.1077 15.6221 14.9228 15.6857 14.7324 15.6857H0.882447ZM15.3455 8.85462H4.35092L3.07009 13.9779H14.0647L15.3455 8.85462Z" fill="#000000"/>
</svg>
