<svg width="20" height="22" viewBox="0 0 20 22" fill="none" xmlns="http://www.w3.org/2000/svg">
<path d="M19 18H12.82C12.6707 17.5806 12.4299 17.1997 12.1151 16.8849C11.8003 16.5701 11.4194 16.3293 11 16.18V14H14C14.7956 14 15.5587 13.6839 16.1213 13.1213C16.6839 12.5587 17 11.7956 17 11V7C17 7 17 7 17 6.94C16.9896 6.84813 16.9695 6.75763 16.94 6.67V6.58C16.8919 6.47718 16.8278 6.38267 16.75 6.3L10.75 0.3C10.6673 0.222216 10.5728 0.158081 10.47 0.11C10.4402 0.10576 10.4099 0.10576 10.38 0.11C10.2784 0.0517414 10.1662 0.0143442 10.05 0H6C5.20435 0 4.44129 0.31607 3.87868 0.87868C3.31607 1.44129 3 2.20435 3 3V11C3 11.7956 3.31607 12.5587 3.87868 13.1213C4.44129 13.6839 5.20435 14 6 14H9V16.18C8.5806 16.3293 8.19969 16.5701 7.8849 16.8849C7.57011 17.1997 7.32932 17.5806 7.18 18H1C0.734784 18 0.48043 18.1054 0.292893 18.2929C0.105357 18.4804 0 18.7348 0 19C0 19.2652 0.105357 19.5196 0.292893 19.7071C0.48043 19.8946 0.734784 20 1 20H7.18C7.3902 20.5792 7.77363 21.0795 8.27816 21.4332C8.7827 21.7868 9.38388 21.9765 10 21.9765C10.6161 21.9765 11.2173 21.7868 11.7218 21.4332C12.2264 21.0795 12.6098 20.5792 12.82 20H19C19.2652 20 19.5196 19.8946 19.7071 19.7071C19.8946 19.5196 20 19.2652 20 19C20 18.7348 19.8946 18.4804 19.7071 18.2929C19.5196 18.1054 19.2652 18 19 18ZM11 3.41L13.59 6H12C11.7348 6 11.4804 5.89464 11.2929 5.70711C11.1054 5.51957 11 5.26522 11 5V3.41ZM6 12C5.73478 12 5.48043 11.8946 5.29289 11.7071C5.10536 11.5196 5 11.2652 5 11V3C5 2.73478 5.10536 2.48043 5.29289 2.29289C5.48043 2.10536 5.73478 2 6 2H9V5C9 5.79565 9.31607 6.55871 9.87868 7.12132C10.4413 7.68393 11.2044 8 12 8H15V11C15 11.2652 14.8946 11.5196 14.7071 11.7071C14.5196 11.8946 14.2652 12 14 12H6ZM10 20C9.80222 20 9.60888 19.9414 9.44443 19.8315C9.27998 19.7216 9.15181 19.5654 9.07612 19.3827C9.00043 19.2 8.98063 18.9989 9.01921 18.8049C9.0578 18.6109 9.15304 18.4327 9.29289 18.2929C9.43275 18.153 9.61093 18.0578 9.80491 18.0192C9.99889 17.9806 10.2 18.0004 10.3827 18.0761C10.5654 18.1518 10.7216 18.28 10.8315 18.4444C10.9414 18.6089 11 18.8022 11 19C11 19.2652 10.8946 19.5196 10.7071 19.7071C10.5196 19.8946 10.2652 20 10 20Z" fill="black"/>
</svg>
