<svg width="17" height="18" viewBox="0 0 17 18" fill="none" xmlns="http://www.w3.org/2000/svg">
<path d="M0.855093 5.5033L5.98095 0.380005H15.3694C15.8407 0.380005 16.225 0.768521 16.225 1.22706V16.6106C16.2247 16.8353 16.1353 17.0508 15.9763 17.2096C15.8173 17.3684 15.6018 17.4576 15.3771 17.4576H1.703C1.59086 17.4569 1.47998 17.434 1.37668 17.3904C1.27338 17.3467 1.17969 17.2832 1.10096 17.2033C1.02222 17.1235 0.959983 17.0289 0.917798 16.925C0.875613 16.8211 0.854305 16.7099 0.855093 16.5978V5.5033ZM6.83227 2.08777V6.35718H2.56286V15.7499H14.5172V2.08777H6.83227Z" fill="#09121F"/>
</svg>
