<svg width="17" height="18" viewBox="0 0 17 18" fill="none" xmlns="http://www.w3.org/2000/svg">
<path d="M11.1429 2.12891H2.60407V15.791H14.5584V5.54444H11.1429V2.12891ZM0.896301 1.26819C0.896301 0.800266 1.27799 0.421143 1.74933 0.421143H11.9968L16.2662 4.69055V16.6389C16.267 16.7511 16.2457 16.8623 16.2035 16.9662C16.1613 17.0701 16.0991 17.1646 16.0203 17.2445C15.9416 17.3243 15.8479 17.3879 15.7446 17.4315C15.6413 17.4751 15.5304 17.498 15.4183 17.4988H1.74421C1.51996 17.4972 1.30533 17.4075 1.14667 17.249C0.988024 17.0905 0.89809 16.876 0.896301 16.6517V1.26819ZM9.88683 11.0486C9.1707 11.467 8.32683 11.6107 7.51258 11.4528C6.69833 11.295 5.96927 10.8464 5.46135 10.1907C4.95343 9.53503 4.70132 8.71698 4.75203 7.88912C4.80274 7.06126 5.15281 6.28011 5.73696 5.6913C6.32481 5.10356 7.10683 4.75037 7.93645 4.69794C8.76607 4.64551 9.58633 4.89743 10.2435 5.4065C10.9007 5.91556 11.3496 6.64681 11.5062 7.4632C11.6629 8.27958 11.5164 9.12506 11.0942 9.84117L12.9813 11.7283L11.7739 12.9365L9.88683 11.0494V11.0486ZM9.35913 9.31347C9.52224 9.15594 9.65234 8.96749 9.74184 8.75914C9.83134 8.55079 9.87845 8.32669 9.88042 8.09994C9.88239 7.87318 9.83918 7.6483 9.75332 7.43843C9.66745 7.22855 9.54064 7.03787 9.3803 6.87752C9.21995 6.71718 9.02927 6.59037 8.8194 6.5045C8.60952 6.41864 8.38464 6.37543 8.15788 6.3774C7.93113 6.37937 7.70704 6.42648 7.49868 6.51598C7.29033 6.60548 7.10188 6.73558 6.94435 6.89869C6.63327 7.22078 6.46113 7.65217 6.46502 8.09994C6.46891 8.54771 6.64852 8.97604 6.96515 9.29267C7.28179 9.6093 7.71011 9.78891 8.15788 9.7928C8.60565 9.79669 9.03704 9.62455 9.35913 9.31347Z" fill="#000000"/>
</svg>
