<svg width="36" height="36" viewBox="0 0 36 36" fill="none" xmlns="http://www.w3.org/2000/svg">
<path d="M17.9998 22.5C13.2447 22.5 9.01597 24.796 6.32377 28.359C5.74433 29.1258 5.45462 29.5092 5.46409 30.0274C5.47141 30.4278 5.72282 30.9328 6.03783 31.18C6.44556 31.5 7.01058 31.5 8.14062 31.5H27.8589C28.989 31.5 29.554 31.5 29.9617 31.18C30.2767 30.9328 30.5281 30.4278 30.5355 30.0274C30.5449 29.5092 30.2552 29.1258 29.6758 28.359C26.9836 24.796 22.7549 22.5 17.9998 22.5Z" fill="#112D4E"/>
<path d="M17.9998 18C21.7277 18 24.7498 14.9779 24.7498 11.25C24.7498 7.52208 21.7277 4.5 17.9998 4.5C14.2719 4.5 11.2498 7.52208 11.2498 11.25C11.2498 14.9779 14.2719 18 17.9998 18Z" fill="#112D4E"/>
<path d="M17.9998 22.5C13.2447 22.5 9.01597 24.796 6.32377 28.359C5.74433 29.1258 5.45462 29.5092 5.46409 30.0274C5.47141 30.4278 5.72282 30.9328 6.03783 31.18C6.44556 31.5 7.01058 31.5 8.14062 31.5H27.8589C28.989 31.5 29.554 31.5 29.9617 31.18C30.2767 30.9328 30.5281 30.4278 30.5355 30.0274C30.5449 29.5092 30.2552 29.1258 29.6758 28.359C26.9836 24.796 22.7549 22.5 17.9998 22.5Z" stroke="#112D4E" stroke-width="2" stroke-linecap="round" stroke-linejoin="round"/>
<path d="M17.9998 18C21.7277 18 24.7498 14.9779 24.7498 11.25C24.7498 7.52208 21.7277 4.5 17.9998 4.5C14.2719 4.5 11.2498 7.52208 11.2498 11.25C11.2498 14.9779 14.2719 18 17.9998 18Z" stroke="#112D4E" stroke-width="2" stroke-linecap="round" stroke-linejoin="round"/>
</svg>
